<svg viewBox="0 0 79.0935 53.0587" fill="none" xmlns="http://www.w3.org/2000/svg" xmlns:xlink="http://www.w3.org/1999/xlink" x="0" y="0"><g id="Group_3">
<path id="Vector_3" d="M10.11,-0.0049v9.4789h24.701v-9.4789z" fill="#ED3B7E"/>
<path id="Vector_4" d="M7.3938,0h-7.3938v7.3651h7.3938z" fill="#FDD800"/>
<path id="Vector_5" d="M10.1126,9.4789h-10.1126v19.7339h10.1126z" fill="#ED3B7E"/>
<path id="Vector_6" d="M10.1126,38.6587h-10.1126v14.4h10.1126v-1.9651z" fill="#FDD800"/>
<g id="Group_4">
<g id="Group_5">
<g id="Group_6">
<path id="Vector_7" d="M76.159,40.2605c-1.939,4.0294 -4.741,7.167 -8.388,9.4129c-3.647,2.2459 -7.941,3.3688 -12.881,3.3688h-17.49v-53.0422h17.49c4.973,0 9.283,1.1064 12.914,3.3028c3.63,2.1963 6.416,5.3009 8.355,9.2972c1.94,3.9963 2.918,8.6037 2.918,13.8055c0,5.2183 -0.978,9.8257 -2.918,13.855zM64.107,37.6018c2.42,-2.6587 3.631,-6.3743 3.631,-11.1798c0,-4.8055 -1.211,-8.5211 -3.631,-11.1798c-2.42,-2.6587 -5.819,-3.9798 -10.195,-3.9798h-5.305v30.3192h5.305c4.376,0 7.775,-1.3376 10.195,-3.9798z" fill="#00A7C7"/>
</g>
<path id="Vector_8" d="M43.152,38.8073c-0.414,-0.2807 -0.812,-0.578 -1.193,-0.8917c-1.741,-0.8092 -3.548,-1.5523 -4.526,-3.2863c-0.017,-0.0165 -0.017,-0.033 -0.033,-0.0495v18.0495l1.21,-0.7101l10.56,-9.7761l-1.144,-0.7927c-1.807,-0.3303 -3.431,-1.5192 -4.874,-2.5431z" fill="#1AC0E2"/>
<path id="Vector_9" d="M18.584,14.8458c-8.9522,0 -16.4786,6.1266 -18.584,14.3835h10.1126c1.6574,-2.956 4.8404,-4.9541 8.4874,-4.9541c5.372,0 9.715,4.3266 9.715,9.677c0,5.3505 -4.343,9.6771 -9.715,9.6771c-3.647,0 -6.813,-1.9982 -8.4874,-4.9541v12.4183c2.5534,1.2551 5.4374,1.9652 8.4874,1.9652c10.594,0 19.181,-8.5542 19.181,-19.1065c-0.016,-10.5522 -8.604,-19.1064 -19.197,-19.1064z" fill="#ED3B7E"/>
<path id="Vector_10" d="M35.958,34.3651c-0.796,-0.9743 -2.106,-1.2715 -3.183,-1.833c-0.697,-0.3633 -1.244,-0.8752 -1.89,-1.2881c-0.647,-0.3963 -1.36,-0.644 -1.99,-1.0569c-0.331,-0.2146 -0.596,-0.4789 -0.795,-0.7596l-1.675,-0.7761l9.417,13.855c0,0 1.906,-4.0293 1.79,-7.3486c-0.647,-0.0496 -1.26,-0.2807 -1.674,-0.7927z" fill="#F06DA0"/>
<path id="Vector_11" d="M74.717,9.578l-6.432,16.6459l1.276,0.2807l5.09,-0.0991z" fill="#1AC0E2"/>
<path id="Vector_12" d="M74.651,26.4055v16.5302l5.155,-15.4403l-1.127,-0.8918z" fill="#1AC0E2"/>
<path id="Vector_13" d="M61.272,51.9358l0.315,-0.1816l13.064,-7.4478v-10.8165" fill="#1AC0E2"/>
<path id="Vector_14" d="M79.442,27.9578c0.86,0 1.558,-0.695 1.558,-1.5523c0,-0.8573 -0.698,-1.5523 -1.558,-1.5523c-0.861,0 -1.559,0.695 -1.559,1.5523c0,0.8573 0.698,1.5523 1.559,1.5523z" fill="white"/>
<path id="Vector_15" d="M61.654,53.0587c0.86,0 1.558,-0.695 1.558,-1.5523c0,-0.8573 -0.698,-1.5523 -1.558,-1.5523c-0.861,0 -1.559,0.695 -1.559,1.5523c0,0.8573 0.698,1.5523 1.559,1.5523z" fill="white"/>
<path id="Vector_16" d="M74.651,45.3963c0.86,0 1.558,-0.6949 1.558,-1.5523c0,-0.8573 -0.698,-1.5523 -1.558,-1.5523c-0.861,0 -1.559,0.695 -1.559,1.5523c0,0.8574 0.698,1.5523 1.559,1.5523z" fill="white"/>
<path id="Vector_17" d="M69.395,27.4954c-0.281,0.2973 -0.679,0.4624 -1.11,0.4624c-0.862,0 -1.559,-0.6936 -1.559,-1.5523c0,-0.8587 0.697,-1.5523 1.559,-1.5523c0.862,0 1.558,0.6936 1.558,1.5523c0,0.4294 -0.166,0.8092 -0.448,1.0899z" fill="white"/>
<path id="Vector_18" d="M37.632,36.2312c0.861,0 1.558,-0.6949 1.558,-1.5523c0,-0.8573 -0.697,-1.5523 -1.558,-1.5523c-0.861,0 -1.558,0.695 -1.558,1.5523c0,0.8574 0.697,1.5523 1.558,1.5523z" fill="white"/>
<path id="Vector_19" d="M49.17,43.5963c0.861,0 1.559,-0.695 1.559,-1.5523c0,-0.8573 -0.698,-1.5522 -1.559,-1.5522c-0.86,0 -1.558,0.6949 -1.558,1.5522c0,0.8573 0.698,1.5523 1.558,1.5523z" fill="white"/>
<path id="Vector_20" d="M38.196,54.1982c0.86,0 1.558,-0.695 1.558,-1.5523c0,-0.8573 -0.698,-1.5523 -1.558,-1.5523c-0.861,0 -1.559,0.695 -1.559,1.5523c0,0.8573 0.698,1.5523 1.559,1.5523z" fill="white"/>
<path id="Vector_21" d="M26.425,30.2037c0.861,0 1.559,-0.695 1.559,-1.5523c0,-0.8573 -0.698,-1.5523 -1.559,-1.5523c-0.86,0 -1.558,0.695 -1.558,1.5523c0,0.8573 0.698,1.5523 1.558,1.5523z" fill="white"/>
<path id="Vector_22" d="M18.882,45.1487c0.861,0 1.559,-0.695 1.559,-1.5523c0,-0.8573 -0.698,-1.5523 -1.559,-1.5523c-0.86,0 -1.558,0.695 -1.558,1.5523c0,0.8573 0.698,1.5523 1.558,1.5523z" fill="white"/>
<path id="Vector_23" d="M74.651,10.7174c0.86,0 1.558,-0.6949 1.558,-1.5523c0,-0.8573 -0.698,-1.5522 -1.558,-1.5522c-0.861,0 -1.559,0.6949 -1.559,1.5522c0,0.8574 0.698,1.5523 1.559,1.5523z" fill="white"/>
<g id="Group_7">
<path id="Vector_24" d="M74.937,8.6947l-6.997,17.6653l0.339,0.1333l6.997,-17.6652z" fill="white"/>
</g>
<g id="Group_8">
<path id="Vector_25" d="M74.468,45.0826v-37.1725l5.62,18.611l-0.016,0.0495zM74.85,10.4037v32.2018l4.873,-16.0679z" fill="white"/>
</g>
<g id="Group_9">
<path id="Vector_26" d="M35.925,42.1266l-8.87,-12.8807c-0.215,-0.0991 -0.447,-0.2147 -0.663,-0.3138l9.102,13.2275l-17.092,1.2716v9.9578l17.44,-10.8991l0.331,-0.0165l-0.033,-0.3633zM18.783,52.7284v-8.9669l16.279,-1.222z" fill="white"/>
<path id="Vector_27" d="M28.962,30.0716l2.172,1.0569c-0.713,-0.3964 -1.426,-0.7266 -2.172,-1.0569z" fill="white"/>
</g>
<g id="Group_10">
<path id="Vector_28" d="M61.007,52.0844l18.087,-25.4807h-11.522v-0.3798h12.234l-0.215,0.2972l-17.308,24.4073l12.732,-7.2495l0.183,0.3303z" fill="white"/>
</g>
<g id="Group_11">
<path id="Vector_29" d="M74.369,43.6624l-35.56,8.6367l10.262,-9.8918c-0.133,0.0166 -0.265,0.0331 -0.398,0.0331c-0.05,0 -0.116,0 -0.166,0l-10.925,10.5358l36.886,-8.9505z" fill="white"/>
</g>
<g id="Group_12">
<path id="Vector_30" d="M49.877,42.1561l-0.224,0.2866l11.875,9.2142l0.224,-0.2866z" fill="white"/>
</g>
<g id="Group_13">
<path id="Vector_31" d="M25.977,28.0118l-0.191,0.31l23.525,14.3216l0.19,-0.31z" fill="white"/>
</g>
</g>
<g id="Group_14">
<path id="Vector_32" d="M8.0569,70.3817c-0.2984,0.4954 -0.746,0.8917 -1.3428,1.1889c-0.5803,0.2973 -1.2931,0.4459 -2.1386,0.4459c-1.2599,0 -2.3043,-0.3137 -3.1167,-0.9248c-0.8123,-0.611 -1.2599,-1.4697 -1.3428,-2.5596h2.8846c0.0497,0.4294 0.1989,0.7596 0.4476,0.9908c0.2652,0.2477 0.5968,0.3633 0.9947,0.3633c0.3481,0 0.6299,-0.099 0.8289,-0.2807c0.1989,-0.1816 0.2984,-0.4459 0.2984,-0.7596c0,-0.2808 -0.0995,-0.5285 -0.2819,-0.7101c-0.1823,-0.1817 -0.4144,-0.3468 -0.6962,-0.4624c-0.2819,-0.1156 -0.6631,-0.2642 -1.1439,-0.4294c-0.7129,-0.2477 -1.2931,-0.4789 -1.7407,-0.7101c-0.4476,-0.2311 -0.8289,-0.5614 -1.1605,-1.0073c-0.3149,-0.4459 -0.4807,-1.0238 -0.4807,-1.7504c0,-0.6606 0.1658,-1.2386 0.5139,-1.7175c0.3316,-0.4789 0.8123,-0.8587 1.4091,-1.1229c0.5968,-0.2642 1.2765,-0.3798 2.0557,-0.3798c1.2433,0 2.238,0.2972 2.984,0.8917c0.7295,0.5945 1.1439,1.4037 1.2434,2.444h-2.9012c-0.0497,-0.3633 -0.1823,-0.6605 -0.3978,-0.8752c-0.2155,-0.2147 -0.514,-0.3303 -0.8787,-0.3303c-0.3149,0 -0.5802,0.0826 -0.7626,0.2477c-0.1989,0.1652 -0.2984,0.4129 -0.2984,0.7432c0,0.2642 0.0829,0.4954 0.2653,0.677c0.1823,0.1817 0.3979,0.3303 0.6631,0.4459c0.2653,0.1156 0.6466,0.2642 1.1439,0.4459c0.7128,0.2477 1.3096,0.4789 1.7573,0.7266c0.4476,0.2312 0.8454,0.578 1.177,1.0403c0.3316,0.4459 0.4973,1.0404 0.4973,1.767c-0.0331,0.5615 -0.1823,1.1064 -0.4807,1.6019z" fill="#4EBA80"/>
<path id="Vector_33" d="M16.528,63.4955c0.696,0.3633 1.244,0.8917 1.641,1.5688c0.398,0.6935 0.597,1.4862 0.597,2.411c0,0.9247 -0.199,1.7174 -0.597,2.411c-0.397,0.6936 -0.945,1.2055 -1.641,1.5688c-0.696,0.3633 -1.475,0.5449 -2.354,0.5449c-0.879,0 -1.674,-0.1816 -2.371,-0.5449c-0.696,-0.3633 -1.2429,-0.8918 -1.6408,-1.5688c-0.3978,-0.6936 -0.5968,-1.4863 -0.5968,-2.411c0,-0.9248 0.199,-1.7175 0.5968,-2.411c0.3979,-0.6936 0.9448,-1.2055 1.6408,-1.5688c0.697,-0.3634 1.492,-0.545 2.371,-0.545c0.879,0 1.658,0.1816 2.354,0.545zM12.864,65.8569c-0.348,0.3798 -0.53,0.9083 -0.53,1.6184c0,0.7101 0.182,1.2385 0.53,1.6183c0.349,0.3633 0.796,0.5615 1.31,0.5615c0.514,0 0.962,-0.1817 1.31,-0.5615c0.348,-0.3633 0.53,-0.9082 0.53,-1.6183c0,-0.7101 -0.182,-1.2551 -0.53,-1.6184c-0.348,-0.3798 -0.779,-0.5614 -1.31,-0.5614c-0.53,0 -0.961,0.1816 -1.31,0.5614z" fill="#4EBA80"/>
<path id="Vector_34" d="M22.894,60.1761v11.7083h-2.719v-11.7083z" fill="#4EBA80"/>
<path id="Vector_35" d="M33.587,63.0661v8.8348h-2.735v-1.6018c-0.249,0.5119 -0.63,0.9248 -1.144,1.2385c-0.498,0.3138 -1.094,0.4624 -1.758,0.4624c-1.011,0 -1.823,-0.3303 -2.42,-1.0073c-0.597,-0.6771 -0.895,-1.6019 -0.895,-2.7908v-5.1358h2.702v4.789c0,0.5945 0.149,1.0734 0.464,1.4036c0.315,0.3303 0.73,0.4954 1.26,0.4954c0.547,0 0.978,-0.1816 1.31,-0.5284c0.315,-0.3468 0.481,-0.8422 0.481,-1.4862v-4.6899h2.735z" fill="#4EBA80"/>
<path id="Vector_36" d="M40.483,69.5725v2.3285h-1.226c-1.045,0 -1.841,-0.2477 -2.421,-0.7597c-0.58,-0.5119 -0.862,-1.3541 -0.862,-2.5431v-3.2367h-1.193v-2.2789h1.193v-2.1633h2.719v2.1633h1.774v2.2789h-1.774v3.2863c0,0.3467 0.066,0.5944 0.215,0.7266c0.15,0.1321 0.382,0.1981 0.73,0.1981z" fill="#4EBA80"/>
<path id="Vector_37" d="M42.191,59.5652c0.298,-0.2643 0.696,-0.3964 1.177,-0.3964c0.481,0 0.879,0.1321 1.177,0.3964c0.298,0.2642 0.448,0.611 0.448,1.0238c0,0.3963 -0.15,0.7431 -0.448,1.0073c-0.298,0.2643 -0.696,0.3964 -1.177,0.3964c-0.481,0 -0.879,-0.1321 -1.177,-0.3964c-0.299,-0.2642 -0.448,-0.611 -0.448,-1.0073c0,-0.4293 0.149,-0.7596 0.448,-1.0238zM44.727,63.0661v8.8348h-2.718v-8.8348z" fill="#4EBA80"/>
<path id="Vector_38" d="M53.099,63.4955c0.697,0.3633 1.244,0.8917 1.641,1.5688c0.398,0.6935 0.597,1.4862 0.597,2.411c0,0.9247 -0.199,1.7174 -0.597,2.411c-0.397,0.6936 -0.944,1.2055 -1.641,1.5688c-0.696,0.3633 -1.475,0.5449 -2.354,0.5449c-0.878,0 -1.674,-0.1816 -2.37,-0.5449c-0.697,-0.3633 -1.244,-0.8918 -1.642,-1.5688c-0.398,-0.6936 -0.597,-1.4863 -0.597,-2.411c0,-0.9248 0.199,-1.7175 0.597,-2.411c0.398,-0.6936 0.945,-1.2055 1.642,-1.5688c0.696,-0.3634 1.492,-0.545 2.37,-0.545c0.879,0 1.658,0.1816 2.354,0.545zM49.435,65.8569c-0.348,0.3798 -0.53,0.9083 -0.53,1.6184c0,0.7101 0.182,1.2385 0.53,1.6183c0.349,0.3633 0.796,0.5615 1.31,0.5615c0.514,0 0.962,-0.1817 1.31,-0.5615c0.348,-0.3633 0.53,-0.9082 0.53,-1.6183c0,-0.7101 -0.182,-1.2551 -0.53,-1.6184c-0.348,-0.3798 -0.779,-0.5614 -1.31,-0.5614c-0.514,0 -0.961,0.1816 -1.31,0.5614z" fill="#4EBA80"/>
<path id="Vector_39" d="M64.803,63.9743c0.597,0.6771 0.895,1.6018 0.895,2.7908v5.1358h-2.718v-4.8055c0,-0.5945 -0.15,-1.0569 -0.464,-1.3872c-0.315,-0.3302 -0.73,-0.4954 -1.244,-0.4954c-0.547,0 -0.995,0.1817 -1.31,0.5285c-0.331,0.3468 -0.48,0.8422 -0.48,1.4862v4.6899h-2.719v-8.8348h2.719v1.6183c0.248,-0.5284 0.63,-0.9413 1.144,-1.255c0.497,-0.3138 1.094,-0.4624 1.773,-0.4624c0.995,-0.0165 1.791,0.3302 2.404,0.9908z" fill="#4EBA80"/>
<path id="Vector_40" d="M73.407,63.7927c0.68,0.5614 1.094,1.3046 1.26,2.2128h-2.536c-0.067,-0.3633 -0.249,-0.644 -0.498,-0.8422c-0.265,-0.1981 -0.58,-0.3137 -0.978,-0.3137c-0.315,0 -0.547,0.066 -0.696,0.1981c-0.166,0.1321 -0.232,0.3138 -0.232,0.5615c0,0.2807 0.149,0.4789 0.431,0.611c0.298,0.1321 0.746,0.2807 1.376,0.4128c0.68,0.1652 1.227,0.3138 1.674,0.4789c0.431,0.1652 0.813,0.4294 1.128,0.7927c0.315,0.3633 0.48,0.8587 0.48,1.4862c0,0.512 -0.132,0.9578 -0.414,1.3377c-0.282,0.3963 -0.68,0.6935 -1.194,0.9247c-0.514,0.2147 -1.127,0.3303 -1.84,0.3303c-1.193,0 -2.155,-0.2642 -2.868,-0.7927c-0.713,-0.5284 -1.16,-1.288 -1.326,-2.2623h2.619c0.05,0.3798 0.199,0.677 0.481,0.8752c0.282,0.1982 0.647,0.2972 1.094,0.2972c0.315,0 0.547,-0.066 0.696,-0.2146c0.166,-0.1487 0.233,-0.3303 0.233,-0.5615c0,-0.3138 -0.15,-0.5285 -0.431,-0.6606c-0.299,-0.1321 -0.763,-0.2642 -1.426,-0.4128c-0.663,-0.1321 -1.194,-0.2807 -1.625,-0.4459c-0.431,-0.1651 -0.796,-0.4128 -1.094,-0.7596c-0.315,-0.3468 -0.464,-0.8422 -0.464,-1.4532c0,-0.7927 0.298,-1.4367 0.912,-1.9156c0.596,-0.4954 1.458,-0.7431 2.553,-0.7431c1.11,0.0165 2.006,0.2972 2.685,0.8587z" fill="#4EBA80"/>
</g>
</g>
</g></svg>