<svg viewBox="0 0 10.0004 10.0001" fill="none" xmlns="http://www.w3.org/2000/svg" xmlns:xlink="http://www.w3.org/1999/xlink" x="0" y="0"><g id="Group_20">
<path id="Vector_46" d="M9.744,8.094l-7.837,-7.838c-0.342,-0.341 -0.896,-0.341 -1.238,0l-0.413,0.413c-0.341,0.342 -0.341,0.896 0,1.237l7.838,7.837c0.342,0.342 0.896,0.342 1.237,0l0.412,-0.412c0.343,-0.341 0.343,-0.895 0.001,-1.237z" fill="currentColor"/>
<path id="Vector_47" d="M8.094,0.257l-7.838,7.837c-0.341,0.342 -0.341,0.896 0,1.237l0.413,0.413c0.342,0.342 0.896,0.342 1.237,0l7.838,-7.837c0.342,-0.342 0.342,-0.896 0,-1.237l-0.412,-0.413c-0.342,-0.342 -0.896,-0.342 -1.238,0z" fill="currentColor"/>
</g></svg>