<svg viewBox="0 0 14 14" fill="none" xmlns="http://www.w3.org/2000/svg" xmlns:xlink="http://www.w3.org/1999/xlink" x="0" y="0"><g id="Group 1221">
<rect id="Rectangle 682" x="0" y="0.0004000000000132786" width="14" height="14" rx="1" fill="currentColor"/>
<path id="Vector_55" d="M10.089,3.9114c-0.125,-0.124 -0.326,-0.124 -0.45,0l-2.639,2.639l-2.638,-2.639c-0.125,-0.124 -0.326,-0.124 -0.45,0c-0.125,0.124 -0.125,0.326 0,0.45l2.638,2.639l-2.638,2.638c-0.125,0.125 -0.125,0.326 0,0.45c0.062,0.062 0.143,0.094 0.225,0.094c0.081,0 0.162,-0.032 0.225,-0.094l2.638,-2.638l2.639,2.638c0.062,0.062 0.143,0.094 0.225,0.094c0.081,0 0.163,-0.032 0.225,-0.094c0.124,-0.124 0.124,-0.325 0,-0.45l-2.639,-2.638l2.639,-2.639c0.124,-0.124 0.124,-0.326 0,-0.45z" fill="white"/>
</g></svg>