<svg viewBox="0 0 42 42" fill="none" xmlns="http://www.w3.org/2000/svg" xmlns:xlink="http://www.w3.org/1999/xlink" x="0" y="0"><g id="Group_19">
<path id="Vector_43" d="M38.062,0h-34.124c-2.175,0 -3.938,1.763 -3.938,3.938v34.124c0,2.175 1.763,3.938 3.938,3.938h34.124c2.175,0 3.938,-1.763 3.938,-3.938v-34.124c0,-2.175 -1.763,-3.938 -3.938,-3.938zM39.375,38.062c0,0.725 -0.588,1.313 -1.313,1.313h-34.124c-0.725,0 -1.313,-0.588 -1.313,-1.313v-34.124c0,-0.725 0.588,-1.313 1.313,-1.313h34.124c0.725,0 1.313,0.588 1.313,1.313z" fill="black"/>
<path id="Vector_44" d="M28.494,22.693c-0.512,-0.509 -1.338,-0.509 -1.85,0l-3.019,3.019l-5.631,-5.631c-0.512,-0.509 -1.338,-0.509 -1.85,0l-9.188,9.188c-0.507,0.517 -0.499,1.348 0.019,1.856c0.24,0.236 0.563,0.37 0.9,0.375h26.25c0.725,0.004 1.316,-0.58 1.32,-1.305c0.002,-0.353 -0.138,-0.691 -0.388,-0.939z" fill="black"/>
<path id="Vector_45" d="M24.938,18.375c2.174,0 3.937,-1.763 3.937,-3.937c0,-2.175 -1.763,-3.938 -3.937,-3.938c-2.175,0 -3.938,1.763 -3.938,3.938c0,2.174 1.763,3.937 3.938,3.937z" fill="black"/>
</g></svg>