<svg viewBox="0 0 31.9922 42" fill="none" xmlns="http://www.w3.org/2000/svg" xmlns:xlink="http://www.w3.org/1999/xlink" x="0" y="0"><g id="Group_22">
<path id="Vector_50" d="M31.6321,10.204l-9.844,-9.843c-0.23,-0.23 -0.543,-0.361 -0.87,-0.361h-17.227c-2.035,0 -3.691,1.656 -3.691,3.691v34.618c0,2.035 1.656,3.691 3.691,3.691h24.61c2.035,0 3.691,-1.656 3.691,-3.691v-27.235c0,-0.335 -0.141,-0.65 -0.36,-0.87zM22.1481,4.201l5.643,5.643h-4.412c-0.679,0 -1.231,-0.552 -1.231,-1.231zM28.3011,39.539h-24.61c-0.678,0 -1.23,-0.552 -1.23,-1.23v-34.618c0,-0.678 0.552,-1.23 1.23,-1.23h15.996v6.152c0,2.036 1.656,3.692 3.692,3.692h6.152v26.004c0,0.678 -0.552,1.23 -1.23,1.23z" fill="black"/>
<path id="Vector_51" d="M23.3791,17.391h-14.766c-0.679,0 -1.23,0.551 -1.23,1.23c0,0.68 0.551,1.231 1.23,1.231h14.766c0.679,0 1.23,-0.551 1.23,-1.231c0,-0.679 -0.551,-1.23 -1.23,-1.23z" fill="black"/>
<path id="Vector_52" d="M23.3791,22.312h-14.766c-0.679,0 -1.23,0.551 -1.23,1.231c0,0.68 0.551,1.23 1.23,1.23h14.766c0.679,0 1.23,-0.55 1.23,-1.23c0,-0.68 -0.551,-1.231 -1.23,-1.231z" fill="black"/>
<path id="Vector_53" d="M23.3791,27.234h-14.766c-0.679,0 -1.23,0.551 -1.23,1.231c0,0.679 0.551,1.23 1.23,1.23h14.766c0.679,0 1.23,-0.551 1.23,-1.23c0,-0.68 -0.551,-1.231 -1.23,-1.231z" fill="black"/>
<path id="Vector_54" d="M18.4571,32.156h-9.844c-0.679,0 -1.23,0.551 -1.23,1.231c0,0.679 0.551,1.23 1.23,1.23h9.844c0.679,0 1.23,-0.551 1.23,-1.23c0,-0.68 -0.551,-1.231 -1.23,-1.231z" fill="black"/>
</g></svg>