<svg viewBox="0 0 21.946 15.7733" fill="none" xmlns="http://www.w3.org/2000/svg" xmlns:xlink="http://www.w3.org/1999/xlink" x="0" y="0"><g id="menu (2)">
<path id="Path 2632" d="M21.0318,8.7966h-20.117c-0.243,0 -0.475,-0.0958 -0.647,-0.2665c-0.171,-0.1707 -0.268,-0.4021 -0.268,-0.6435c0,-0.2413 0.097,-0.4728 0.268,-0.6434c0.172,-0.1707 0.404,-0.2666 0.647,-0.2666h20.117c0.242,0 0.475,0.0959 0.646,0.2666c0.172,0.1706 0.268,0.4021 0.268,0.6434c0,0.2414 -0.096,0.4728 -0.268,0.6435c-0.171,0.1707 -0.404,0.2665 -0.646,0.2665z" fill="currentColor"/>
<path id="Path 2633" d="M21.0318,1.82h-20.117c-0.243,0 -0.475,-0.0959 -0.647,-0.2665c-0.171,-0.1707 -0.268,-0.4021 -0.268,-0.6435c0,-0.2413 0.097,-0.4728 0.268,-0.6435c0.172,-0.1706 0.404,-0.2665 0.647,-0.2665h20.117c0.242,0 0.475,0.0959 0.646,0.2665c0.172,0.1707 0.268,0.4022 0.268,0.6435c0,0.2414 -0.096,0.4728 -0.268,0.6435c-0.171,0.1706 -0.404,0.2665 -0.646,0.2665z" fill="currentColor"/>
<path id="Path 2634" d="M12.6778,15.7733h-12.127c-0.305,0 -0.551,-0.4072 -0.551,-0.91c0,-0.5029 0.248,-0.91 0.551,-0.91h12.127c0.305,0 0.551,0.4071 0.551,0.91c0,0.5028 -0.246,0.91 -0.551,0.91z" fill="currentColor"/>
</g></svg>