<svg viewBox="0 0 36 33.3642" fill="none" xmlns="http://www.w3.org/2000/svg" xmlns:xlink="http://www.w3.org/1999/xlink" x="0" y="0"><g id="Group_16">
<path id="Vector_41" d="M34.97,16.2661c-0.57,0 -1.03,0.458 -1.03,1.031v9.382c0,2.552 -2.08,4.622 -4.63,4.622h-22.62c-2.56,0 -4.63,-2.078 -4.63,-4.622v-9.535c0,-0.573 -0.46,-1.031 -1.03,-1.031c-0.57,0 -1.03,0.458 -1.03,1.031v9.535c0,3.69 3,6.685 6.69,6.685h22.62c3.7,0 6.69,-3.002 6.69,-6.685v-9.382c0,-0.565 -0.46,-1.031 -1.03,-1.031z" fill="black"/>
<path id="Vector_42" d="M12.17,8.3201l4.8,-4.798v20.926c0,0.573 0.46,1.032 1.03,1.032c0.57,0 1.03,-0.459 1.03,-1.032v-20.926l4.8,4.798c0.2,0.199 0.47,0.306 0.73,0.306c0.26,0 0.52,-0.1 0.72,-0.306c0.41,-0.405 0.41,-1.054 0,-1.459l-6.55,-6.555c-0.2,-0.191 -0.46,-0.306 -0.73,-0.306c-0.28,0 -0.53,0.107 -0.73,0.306l-6.55,6.555c-0.41,0.405 -0.41,1.054 0,1.459c0.4,0.397 1.05,0.397 1.45,0z" fill="black"/>
</g></svg>